<svg width="36" height="36" viewBox="0 0 36 36" fill="none" xmlns="http://www.w3.org/2000/svg">
<path d="M22.5 25.5C21.875 25.5 21.3438 25.2812 20.9062 24.8438C20.4688 24.4062 20.25 23.875 20.25 23.25C20.25 23.1625 20.2562 23.0717 20.2687 22.9777C20.2812 22.8837 20.3 22.7995 20.325 22.725L15.0375 19.65C14.825 19.8375 14.5875 19.9845 14.325 20.091C14.0625 20.1975 13.7875 20.2505 13.5 20.25C12.875 20.25 12.3438 20.0312 11.9062 19.5938C11.4688 19.1562 11.25 18.625 11.25 18C11.25 17.375 11.4688 16.8438 11.9062 16.4062C12.3438 15.9688 12.875 15.75 13.5 15.75C13.7875 15.75 14.0625 15.8033 14.325 15.9097C14.5875 16.0163 14.825 16.163 15.0375 16.35L20.325 13.275C20.3 13.2 20.2812 13.1157 20.2687 13.0222C20.2562 12.9288 20.25 12.838 20.25 12.75C20.25 12.125 20.4688 11.5938 20.9062 11.1562C21.3438 10.7188 21.875 10.5 22.5 10.5C23.125 10.5 23.6562 10.7188 24.0938 11.1562C24.5312 11.5938 24.75 12.125 24.75 12.75C24.75 13.375 24.5312 13.9062 24.0938 14.3438C23.6562 14.7812 23.125 15 22.5 15C22.2125 15 21.9375 14.947 21.675 14.841C21.4125 14.735 21.175 14.588 20.9625 14.4L15.675 17.475C15.7 17.55 15.7188 17.6345 15.7313 17.7285C15.7438 17.8225 15.75 17.913 15.75 18C15.75 18.0875 15.7438 18.1782 15.7313 18.2723C15.7188 18.3663 15.7 18.4505 15.675 18.525L20.9625 21.6C21.175 21.4125 21.4125 21.2657 21.675 21.1597C21.9375 21.0537 22.2125 21.0005 22.5 21C23.125 21 23.6562 21.2188 24.0938 21.6562C24.5312 22.0938 24.75 22.625 24.75 23.25C24.75 23.875 24.5312 24.4062 24.0938 24.8438C23.6562 25.2812 23.125 25.5 22.5 25.5Z" fill="white"/>
<circle cx="18" cy="18" r="17.5" stroke="#313131"/>
</svg>
