<svg width="20" height="20" viewBox="0 0 20 20" fill="none" xmlns="http://www.w3.org/2000/svg">
<path d="M4.16667 18.3334C3.70833 18.3334 3.31583 18.1701 2.98917 17.8434C2.6625 17.5167 2.49945 17.1245 2.5 16.6667V5.00008H4.16667V16.6667H13.3333V18.3334H4.16667ZM7.5 15.0001C7.04167 15.0001 6.64917 14.8368 6.3225 14.5101C5.99583 14.1834 5.83278 13.7912 5.83333 13.3334V3.33342C5.83333 2.87508 5.99667 2.48258 6.32333 2.15592C6.65 1.82925 7.04222 1.66619 7.5 1.66675H15C15.4583 1.66675 15.8508 1.83008 16.1775 2.15675C16.5042 2.48342 16.6672 2.87564 16.6667 3.33342V13.3334C16.6667 13.7917 16.5033 14.1842 16.1767 14.5109C15.85 14.8376 15.4578 15.0006 15 15.0001H7.5Z" fill="#868686"/>
</svg>
