<svg width="24" height="24" viewBox="0 0 24 24" fill="none" xmlns="http://www.w3.org/2000/svg">
<mask id="path-1-inside-1_40_950" fill="white">
<path d="M9.9376 13.5C9.9376 13.6854 9.88262 13.8666 9.77961 14.0208C9.67659 14.175 9.53017 14.2951 9.35887 14.3661C9.18756 14.4371 8.99906 14.4556 8.81721 14.4195C8.63535 14.3833 8.4683 14.294 8.33719 14.1629C8.20608 14.0318 8.11679 13.8647 8.08062 13.6829C8.04444 13.501 8.06301 13.3125 8.13397 13.1412C8.20492 12.9699 8.32508 12.8235 8.47926 12.7205C8.63343 12.6175 8.81468 12.5625 9.0001 12.5625C9.24874 12.5625 9.4872 12.6612 9.66302 12.8371C9.83883 13.0129 9.9376 13.2513 9.9376 13.5ZM15.0001 12.5625C14.8147 12.5625 14.6334 12.6175 14.4793 12.7205C14.3251 12.8235 14.2049 12.9699 14.134 13.1412C14.063 13.3125 14.0444 13.501 14.0806 13.6829C14.1168 13.8647 14.2061 14.0318 14.3372 14.1629C14.4683 14.294 14.6353 14.3833 14.8172 14.4195C14.9991 14.4556 15.1876 14.4371 15.3589 14.3661C15.5302 14.2951 15.6766 14.175 15.7796 14.0208C15.8826 13.8666 15.9376 13.6854 15.9376 13.5C15.9376 13.2513 15.8388 13.0129 15.663 12.8371C15.4872 12.6612 15.2487 12.5625 15.0001 12.5625ZM22.6032 17.3437C21.0751 18.675 19.0126 19.6875 16.6407 20.2687C16.5389 20.2904 16.4354 20.303 16.3314 20.3062C16.0871 20.3064 15.8478 20.2379 15.6406 20.1086C15.4334 19.9793 15.2667 19.7944 15.1595 19.575L14.2126 17.6812C13.4783 17.7678 12.7395 17.8116 12.0001 17.8125C11.2607 17.8116 10.5219 17.7678 9.7876 17.6812L8.84073 19.575C8.73355 19.7944 8.56685 19.9793 8.35965 20.1086C8.15245 20.2379 7.91308 20.3064 7.66885 20.3062C7.56482 20.303 7.46128 20.2904 7.35948 20.2687C4.9876 19.6875 2.9251 18.675 1.39698 17.3437C1.20493 17.1788 1.06469 16.9618 0.993167 16.7189C0.921641 16.4761 0.921879 16.2177 0.993853 15.975L4.18135 5.35309C4.23793 5.16631 4.33545 4.99449 4.46682 4.85015C4.59818 4.70581 4.76008 4.59259 4.94073 4.51872C5.87063 4.13385 6.8341 3.83571 7.81885 3.62809C8.13508 3.55882 8.46576 3.60972 8.74651 3.77089C9.02726 3.93206 9.23797 4.19196 9.3376 4.49997L9.94698 6.29997C11.3116 6.14994 12.6886 6.14994 14.0532 6.29997L14.6626 4.49997C14.7622 4.19196 14.9729 3.93206 15.2537 3.77089C15.5344 3.60972 15.8651 3.55882 16.1814 3.62809C17.1661 3.83571 18.1296 4.13385 19.0595 4.51872C19.2401 4.59259 19.402 4.70581 19.5334 4.85015C19.6648 4.99449 19.7623 5.16631 19.8189 5.35309L23.0064 15.975C23.0783 16.2177 23.0786 16.4761 23.007 16.7189C22.9355 16.9618 22.7953 17.1788 22.6032 17.3437ZM21.9282 16.2937L18.7407 5.68122C18.7326 5.65364 18.7182 5.6283 18.6987 5.60717C18.6792 5.58603 18.6551 5.56967 18.6282 5.55934C17.7607 5.20301 16.8635 4.9238 15.947 4.72497C15.9001 4.71763 15.8521 4.72667 15.8111 4.75058C15.7701 4.77449 15.7387 4.8118 15.722 4.85622L15.1876 6.46872C15.8675 6.58559 16.538 6.75166 17.1939 6.96559C17.3204 7.00716 17.4281 7.09228 17.4978 7.2058C17.5674 7.31933 17.5945 7.45389 17.5743 7.58554C17.554 7.71719 17.4877 7.83738 17.3872 7.92472C17.2866 8.01205 17.1583 8.06087 17.0251 8.06247L16.847 8.03434C15.278 7.54646 13.6432 7.30299 12.0001 7.31247C10.357 7.30299 8.72225 7.54646 7.15323 8.03434C7.08199 8.06141 7.006 8.07373 6.92987 8.07054C6.85373 8.06735 6.77904 8.04872 6.71032 8.01579C6.6416 7.98285 6.58028 7.9363 6.5301 7.87895C6.47992 7.82161 6.44191 7.75466 6.41839 7.68218C6.39486 7.6097 6.38631 7.53319 6.39325 7.4573C6.40019 7.38142 6.42248 7.30773 6.45876 7.24072C6.49504 7.17371 6.54456 7.11476 6.60431 7.06747C6.66406 7.02018 6.7328 6.98552 6.80635 6.96559C7.4622 6.75166 8.13271 6.58559 8.8126 6.46872L8.27823 4.85622C8.26155 4.8118 8.23006 4.77449 8.18907 4.75058C8.14808 4.72667 8.10011 4.71763 8.05323 4.72497C7.13671 4.9238 6.23949 5.20301 5.37198 5.55934C5.34514 5.56967 5.32103 5.58603 5.30152 5.60717C5.28201 5.6283 5.26763 5.65364 5.25948 5.68122L2.07198 16.2937C2.06157 16.3307 2.06224 16.37 2.07391 16.4067C2.08557 16.4433 2.10771 16.4758 2.1376 16.5C3.53448 17.7093 5.42823 18.6375 7.63135 19.1718C7.67125 19.1809 7.713 19.1766 7.75024 19.1596C7.78748 19.1427 7.81816 19.1141 7.8376 19.0781L8.6251 17.5031C8.00949 17.3857 7.40201 17.2292 6.80635 17.0343C6.7328 17.0144 6.66406 16.9798 6.60431 16.9325C6.54456 16.8852 6.49504 16.8262 6.45876 16.7592C6.42248 16.6922 6.40019 16.6185 6.39325 16.5426C6.38631 16.4667 6.39486 16.3902 6.41839 16.3178C6.44191 16.2453 6.47992 16.1783 6.5301 16.121C6.58028 16.0636 6.6416 16.0171 6.71032 15.9841C6.77904 15.9512 6.85373 15.9326 6.92987 15.9294C7.006 15.9262 7.08199 15.9385 7.15323 15.9656C8.72225 16.4535 10.357 16.6969 12.0001 16.6875C13.6432 16.6969 15.278 16.4535 16.847 15.9656C16.9182 15.9385 16.9942 15.9262 17.0703 15.9294C17.1465 15.9326 17.2212 15.9512 17.2899 15.9841C17.3586 16.0171 17.4199 16.0636 17.4701 16.121C17.5203 16.1783 17.5583 16.2453 17.5818 16.3178C17.6053 16.3902 17.6139 16.4667 17.607 16.5426C17.6 16.6185 17.5777 16.6922 17.5414 16.7592C17.5052 16.8262 17.4556 16.8852 17.3959 16.9325C17.3361 16.9798 17.2674 17.0144 17.1939 17.0343C16.5982 17.2292 15.9907 17.3857 15.3751 17.5031L16.1626 19.0781C16.182 19.1141 16.2127 19.1427 16.25 19.1596C16.2872 19.1766 16.329 19.1809 16.3689 19.1718C18.572 18.6375 20.4657 17.7093 21.8626 16.5C21.8925 16.4758 21.9146 16.4433 21.9263 16.4067C21.938 16.37 21.9386 16.3307 21.9282 16.2937Z"/>
</mask>
<path d="M9.9376 13.5C9.9376 13.6854 9.88262 13.8666 9.77961 14.0208C9.67659 14.175 9.53017 14.2951 9.35887 14.3661C9.18756 14.4371 8.99906 14.4556 8.81721 14.4195C8.63535 14.3833 8.4683 14.294 8.33719 14.1629C8.20608 14.0318 8.11679 13.8647 8.08062 13.6829C8.04444 13.501 8.06301 13.3125 8.13397 13.1412C8.20492 12.9699 8.32508 12.8235 8.47926 12.7205C8.63343 12.6175 8.81468 12.5625 9.0001 12.5625C9.24874 12.5625 9.4872 12.6612 9.66302 12.8371C9.83883 13.0129 9.9376 13.2513 9.9376 13.5ZM15.0001 12.5625C14.8147 12.5625 14.6334 12.6175 14.4793 12.7205C14.3251 12.8235 14.2049 12.9699 14.134 13.1412C14.063 13.3125 14.0444 13.501 14.0806 13.6829C14.1168 13.8647 14.2061 14.0318 14.3372 14.1629C14.4683 14.294 14.6353 14.3833 14.8172 14.4195C14.9991 14.4556 15.1876 14.4371 15.3589 14.3661C15.5302 14.2951 15.6766 14.175 15.7796 14.0208C15.8826 13.8666 15.9376 13.6854 15.9376 13.5C15.9376 13.2513 15.8388 13.0129 15.663 12.8371C15.4872 12.6612 15.2487 12.5625 15.0001 12.5625ZM22.6032 17.3437C21.0751 18.675 19.0126 19.6875 16.6407 20.2687C16.5389 20.2904 16.4354 20.303 16.3314 20.3062C16.0871 20.3064 15.8478 20.2379 15.6406 20.1086C15.4334 19.9793 15.2667 19.7944 15.1595 19.575L14.2126 17.6812C13.4783 17.7678 12.7395 17.8116 12.0001 17.8125C11.2607 17.8116 10.5219 17.7678 9.7876 17.6812L8.84073 19.575C8.73355 19.7944 8.56685 19.9793 8.35965 20.1086C8.15245 20.2379 7.91308 20.3064 7.66885 20.3062C7.56482 20.303 7.46128 20.2904 7.35948 20.2687C4.9876 19.6875 2.9251 18.675 1.39698 17.3437C1.20493 17.1788 1.06469 16.9618 0.993167 16.7189C0.921641 16.4761 0.921879 16.2177 0.993853 15.975L4.18135 5.35309C4.23793 5.16631 4.33545 4.99449 4.46682 4.85015C4.59818 4.70581 4.76008 4.59259 4.94073 4.51872C5.87063 4.13385 6.8341 3.83571 7.81885 3.62809C8.13508 3.55882 8.46576 3.60972 8.74651 3.77089C9.02726 3.93206 9.23797 4.19196 9.3376 4.49997L9.94698 6.29997C11.3116 6.14994 12.6886 6.14994 14.0532 6.29997L14.6626 4.49997C14.7622 4.19196 14.9729 3.93206 15.2537 3.77089C15.5344 3.60972 15.8651 3.55882 16.1814 3.62809C17.1661 3.83571 18.1296 4.13385 19.0595 4.51872C19.2401 4.59259 19.402 4.70581 19.5334 4.85015C19.6648 4.99449 19.7623 5.16631 19.8189 5.35309L23.0064 15.975C23.0783 16.2177 23.0786 16.4761 23.007 16.7189C22.9355 16.9618 22.7953 17.1788 22.6032 17.3437ZM21.9282 16.2937L18.7407 5.68122C18.7326 5.65364 18.7182 5.6283 18.6987 5.60717C18.6792 5.58603 18.6551 5.56967 18.6282 5.55934C17.7607 5.20301 16.8635 4.9238 15.947 4.72497C15.9001 4.71763 15.8521 4.72667 15.8111 4.75058C15.7701 4.77449 15.7387 4.8118 15.722 4.85622L15.1876 6.46872C15.8675 6.58559 16.538 6.75166 17.1939 6.96559C17.3204 7.00716 17.4281 7.09228 17.4978 7.2058C17.5674 7.31933 17.5945 7.45389 17.5743 7.58554C17.554 7.71719 17.4877 7.83738 17.3872 7.92472C17.2866 8.01205 17.1583 8.06087 17.0251 8.06247L16.847 8.03434C15.278 7.54646 13.6432 7.30299 12.0001 7.31247C10.357 7.30299 8.72225 7.54646 7.15323 8.03434C7.08199 8.06141 7.006 8.07373 6.92987 8.07054C6.85373 8.06735 6.77904 8.04872 6.71032 8.01579C6.6416 7.98285 6.58028 7.9363 6.5301 7.87895C6.47992 7.82161 6.44191 7.75466 6.41839 7.68218C6.39486 7.6097 6.38631 7.53319 6.39325 7.4573C6.40019 7.38142 6.42248 7.30773 6.45876 7.24072C6.49504 7.17371 6.54456 7.11476 6.60431 7.06747C6.66406 7.02018 6.7328 6.98552 6.80635 6.96559C7.4622 6.75166 8.13271 6.58559 8.8126 6.46872L8.27823 4.85622C8.26155 4.8118 8.23006 4.77449 8.18907 4.75058C8.14808 4.72667 8.10011 4.71763 8.05323 4.72497C7.13671 4.9238 6.23949 5.20301 5.37198 5.55934C5.34514 5.56967 5.32103 5.58603 5.30152 5.60717C5.28201 5.6283 5.26763 5.65364 5.25948 5.68122L2.07198 16.2937C2.06157 16.3307 2.06224 16.37 2.07391 16.4067C2.08557 16.4433 2.10771 16.4758 2.1376 16.5C3.53448 17.7093 5.42823 18.6375 7.63135 19.1718C7.67125 19.1809 7.713 19.1766 7.75024 19.1596C7.78748 19.1427 7.81816 19.1141 7.8376 19.0781L8.6251 17.5031C8.00949 17.3857 7.40201 17.2292 6.80635 17.0343C6.7328 17.0144 6.66406 16.9798 6.60431 16.9325C6.54456 16.8852 6.49504 16.8262 6.45876 16.7592C6.42248 16.6922 6.40019 16.6185 6.39325 16.5426C6.38631 16.4667 6.39486 16.3902 6.41839 16.3178C6.44191 16.2453 6.47992 16.1783 6.5301 16.121C6.58028 16.0636 6.6416 16.0171 6.71032 15.9841C6.77904 15.9512 6.85373 15.9326 6.92987 15.9294C7.006 15.9262 7.08199 15.9385 7.15323 15.9656C8.72225 16.4535 10.357 16.6969 12.0001 16.6875C13.6432 16.6969 15.278 16.4535 16.847 15.9656C16.9182 15.9385 16.9942 15.9262 17.0703 15.9294C17.1465 15.9326 17.2212 15.9512 17.2899 15.9841C17.3586 16.0171 17.4199 16.0636 17.4701 16.121C17.5203 16.1783 17.5583 16.2453 17.5818 16.3178C17.6053 16.3902 17.6139 16.4667 17.607 16.5426C17.6 16.6185 17.5777 16.6922 17.5414 16.7592C17.5052 16.8262 17.4556 16.8852 17.3959 16.9325C17.3361 16.9798 17.2674 17.0144 17.1939 17.0343C16.5982 17.2292 15.9907 17.3857 15.3751 17.5031L16.1626 19.0781C16.182 19.1141 16.2127 19.1427 16.25 19.1596C16.2872 19.1766 16.329 19.1809 16.3689 19.1718C18.572 18.6375 20.4657 17.7093 21.8626 16.5C21.8925 16.4758 21.9146 16.4433 21.9263 16.4067C21.938 16.37 21.9386 16.3307 21.9282 16.2937Z" fill="white" stroke="white" strokeWidth="4" mask="url(#path-1-inside-1_40_950)"/>
</svg>
