<svg width="19" height="19" viewBox="0 0 19 19" fill="none" xmlns="http://www.w3.org/2000/svg">
<path d="M15.3795 2.63267C14.5501 1.79487 13.5622 1.1306 12.4734 0.678608C11.3846 0.226616 10.2166 -0.00405306 9.03773 5.38913e-05C4.09819 5.38913e-05 0.0723744 4.02587 0.0723744 8.96541C0.0723744 10.5486 0.488526 12.0865 1.26655 13.4436L0 18.0936L4.74956 16.8452C6.06134 17.5598 7.53597 17.9398 9.03773 17.9398C13.9773 17.9398 18.0031 13.914 18.0031 8.97446C18.0031 6.57706 17.0713 4.32441 15.3795 2.63267ZM9.03773 16.42C7.69881 16.42 6.38702 16.0581 5.23808 15.3796L4.96668 15.2167L2.14409 15.9586L2.89497 13.2083L2.71403 12.9279C1.97016 11.74 1.57517 10.367 1.57414 8.96541C1.57414 4.85817 4.92145 1.51087 9.02868 1.51087C11.019 1.51087 12.8917 2.28889 14.2939 3.70019C14.9882 4.39133 15.5385 5.21341 15.9127 6.11877C16.287 7.02414 16.4778 7.99479 16.4742 8.97446C16.4923 13.0817 13.145 16.42 9.03773 16.42ZM13.1269 10.8471C12.9007 10.7386 11.797 10.1958 11.598 10.1144C11.3899 10.042 11.2451 10.0058 11.0913 10.2229C10.9376 10.4491 10.5124 10.9557 10.3857 11.1004C10.259 11.2542 10.1233 11.2723 9.89717 11.1547C9.671 11.0462 8.94726 10.8019 8.09687 10.042C7.4274 9.44489 6.98411 8.7121 6.84841 8.48593C6.72176 8.25976 6.83032 8.14215 6.94792 8.02454C7.04744 7.92503 7.17409 7.76219 7.28266 7.63553C7.39122 7.50888 7.43645 7.40936 7.50883 7.26462C7.5812 7.11082 7.54501 6.98417 7.49073 6.8756C7.43645 6.76704 6.98411 5.66334 6.80318 5.211C6.62224 4.77675 6.43226 4.83103 6.29656 4.82199H5.86231C5.70852 4.82199 5.4733 4.87627 5.26522 5.10244C5.0662 5.32861 4.4872 5.87141 4.4872 6.97512C4.4872 8.07883 5.29237 9.14635 5.40093 9.29109C5.50949 9.44489 6.98411 11.7066 9.22771 12.6746C9.76147 12.9098 10.1776 13.0455 10.5033 13.145C11.0371 13.3169 11.5256 13.2898 11.9146 13.2355C12.3489 13.1722 13.2445 12.6927 13.4254 12.168C13.6154 11.6433 13.6154 11.2 13.5521 11.1004C13.4887 11.0009 13.353 10.9557 13.1269 10.8471Z" fill="white"/>
</svg>
