<svg width="19" height="16" viewBox="0 0 19 16" fill="none" xmlns="http://www.w3.org/2000/svg">
<path d="M18.1551 2.34937C18.1168 2.25702 18.0521 2.17801 17.9691 2.1222C17.8862 2.06639 17.7886 2.03626 17.6886 2.03556H15.0085C14.6772 1.42713 14.1899 0.917877 13.5967 0.560138C13.0034 0.202398 12.3256 0.0090756 11.6329 3.7241e-05C10.5921 -0.00448761 9.59191 0.403484 8.85119 1.13467C8.11048 1.86585 7.68958 2.86069 7.68061 3.90146V4.63934C4.08452 3.78272 1.11605 0.856654 1.08212 0.83121C1.01674 0.766663 0.935096 0.721022 0.845864 0.699132C0.756632 0.677241 0.663137 0.679917 0.575303 0.706876C0.487469 0.733835 0.408573 0.784071 0.346986 0.852253C0.2854 0.920434 0.243421 1.00402 0.225506 1.09413C-0.512372 5.13126 0.700462 7.82833 1.84544 9.38041C2.45271 10.2115 3.19868 10.9316 4.0506 11.5092C2.73599 13.1037 0.573242 13.9349 0.547798 13.9434C0.475538 13.97 0.410393 14.0129 0.357435 14.0688C0.304477 14.1247 0.265134 14.1921 0.242469 14.2657C0.218402 14.3375 0.211239 14.4139 0.221536 14.4889C0.231834 14.5639 0.259315 14.6356 0.301838 14.6982C0.386652 14.8254 1.21782 15.945 4.11845 15.945C10.03 15.945 14.9746 11.3735 15.4495 5.50444L18.0448 2.90066C18.1184 2.83174 18.1686 2.74154 18.1883 2.64269C18.2081 2.54384 18.1965 2.44129 18.1551 2.34937ZM14.5929 4.91922C14.5047 5.00724 14.4532 5.12545 14.4487 5.25C14.101 10.6781 9.56348 14.9272 4.11845 14.9272C2.93954 14.9272 2.1847 14.7237 1.73519 14.5201C2.69358 14.0367 4.26263 13.0868 5.22102 11.6449C5.2592 11.5852 5.2849 11.5183 5.29656 11.4483C5.30822 11.3784 5.3056 11.3068 5.28887 11.2378C5.27079 11.1673 5.23803 11.1014 5.19272 11.0444C5.14741 10.9874 5.09058 10.9406 5.02595 10.9071C5.00899 10.9071 3.73679 10.2455 2.63421 8.73583C1.3196 6.93778 0.802238 4.74111 1.0906 2.20519C2.32888 3.25688 5.00051 5.24151 8.10468 5.75888C8.17774 5.77275 8.25298 5.77017 8.32492 5.75132C8.39685 5.73246 8.46369 5.69781 8.52055 5.64989C8.57741 5.60196 8.62288 5.54196 8.65364 5.47425C8.6844 5.40654 8.69968 5.33283 8.69838 5.25848V3.90146C8.7051 3.13286 9.01572 2.39816 9.56239 1.85785C10.1091 1.31754 10.8473 1.01553 11.616 1.0178C12.1713 1.02582 12.7127 1.19313 13.1758 1.49984C13.6389 1.80655 14.0042 2.23976 14.2282 2.748C14.2669 2.83942 14.3319 2.91727 14.415 2.97164C14.4981 3.02601 14.5954 3.05445 14.6947 3.05332H16.4588L14.5929 4.91922Z" fill="white"/>
</svg>
