<svg width="19" height="15" viewBox="0 0 19 15" fill="none" xmlns="http://www.w3.org/2000/svg">
<path d="M9.04678 0C9.82028 0 10.6137 0.019903 11.3827 0.0524714L12.291 0.0958958L13.1603 0.147463L13.9746 0.202648L14.7182 0.260547C15.5252 0.322317 16.2846 0.666699 16.8628 1.23311C17.4409 1.79952 17.8008 2.55168 17.8791 3.35726L17.9153 3.74175L17.9832 4.565C18.0465 5.41811 18.0936 6.34812 18.0936 7.23742C18.0936 8.12672 18.0465 9.05673 17.9832 9.90984L17.9153 10.7331C17.9036 10.8652 17.8918 10.9927 17.8791 11.1176C17.8008 11.9233 17.4408 12.6756 16.8624 13.242C16.2841 13.8084 15.5245 14.1527 14.7173 14.2143L13.9755 14.2713L13.1613 14.3274L12.291 14.3789L11.3827 14.4224C10.6045 14.4562 9.82568 14.4737 9.04678 14.4748C8.26787 14.4737 7.48907 14.4562 6.7109 14.4224L5.8026 14.3789L4.93321 14.3274L4.119 14.2713L3.37535 14.2143C2.56834 14.1525 1.80895 13.8081 1.23079 13.2417C0.652629 12.6753 0.29273 11.9232 0.214409 11.1176L0.178222 10.7331L0.110371 9.90984C0.0411968 9.02067 0.00438228 8.12927 0 7.23742C0 6.34812 0.0470432 5.41811 0.110371 4.565L0.178222 3.74175C0.189982 3.60966 0.201743 3.4821 0.214409 3.35726C0.2927 2.55182 0.652469 1.79978 1.23044 1.23339C1.80842 0.666993 2.56759 0.32252 3.37445 0.260547L4.11719 0.202648L4.9314 0.147463L5.8017 0.0958958L6.70999 0.0524714C7.48847 0.0186662 8.26757 0.00117182 9.04678 0ZM9.04678 1.80936C8.30042 1.80936 7.53235 1.82926 6.78508 1.86002L5.90031 1.90254L5.05082 1.95229L4.25289 2.00658L3.52191 2.06357C3.13772 2.09083 2.77559 2.25323 2.49971 2.52199C2.22383 2.79076 2.05201 3.14852 2.01472 3.53186C1.90887 4.62562 1.80936 5.98716 1.80936 7.23742C1.80936 8.48769 1.90887 9.84923 2.01472 10.943C2.09161 11.7319 2.71765 12.3452 3.52191 12.4113L4.25289 12.4674L5.05082 12.5216L5.90031 12.5723L6.78508 12.6148C7.53235 12.6456 8.30042 12.6655 9.04678 12.6655C9.79314 12.6655 10.5612 12.6456 11.3085 12.6148L12.1932 12.5723L13.0427 12.5225L13.8407 12.4683L14.5716 12.4113C14.9558 12.384 15.318 12.2216 15.5938 11.9528C15.8697 11.6841 16.0415 11.3263 16.0788 10.943C16.1847 9.84923 16.2842 8.48769 16.2842 7.23742C16.2842 5.98716 16.1847 4.62562 16.0788 3.53186C16.0415 3.14852 15.8697 2.79076 15.5938 2.52199C15.318 2.25323 14.9558 2.09083 14.5716 2.06357L13.8407 2.00748L13.0427 1.9532L12.1932 1.90254L11.3085 1.86002C10.555 1.8276 9.80094 1.81071 9.04678 1.80936ZM7.23742 5.04358C7.23736 4.95516 7.25891 4.86806 7.30018 4.78986C7.34145 4.71167 7.40119 4.64474 7.47422 4.59489C7.54726 4.54504 7.63136 4.51379 7.71922 4.50385C7.80708 4.49392 7.89603 4.50559 7.97835 4.53786L8.05163 4.57405L11.8513 6.76699C11.9269 6.81065 11.9909 6.87192 12.0379 6.94561C12.0848 7.01929 12.1132 7.10321 12.1208 7.19024C12.1283 7.27727 12.1148 7.36483 12.0812 7.4455C12.0477 7.52616 11.9952 7.59754 11.9282 7.65357L11.8513 7.70785L8.05163 9.9017C7.97506 9.94604 7.88881 9.97099 7.8004 9.97437C7.71198 9.97776 7.62408 9.95948 7.54434 9.92113C7.4646 9.88278 7.39545 9.82551 7.3429 9.75432C7.29036 9.68314 7.25601 9.60018 7.24285 9.51269L7.23742 9.43126V5.04358Z" fill="white"/>
</svg>
