<svg width="24" height="24" viewBox="0 0 24 24" fill="none" xmlns="http://www.w3.org/2000/svg">
<circle cx="12" cy="12" r="12" fill="black"/>
<path d="M12 4C12.8487 4 13.6626 4.33714 14.2627 4.93726C14.8628 5.53737 15.2 6.35131 15.2 7.2C15.2 8.04869 14.8628 8.86263 14.2627 9.46274C13.6626 10.0629 12.8487 10.4 12 10.4C11.1513 10.4 10.3374 10.0629 9.73723 9.46274C9.13712 8.86263 8.79998 8.04869 8.79998 7.2C8.79998 6.35131 9.13712 5.53737 9.73723 4.93726C10.3374 4.33714 11.1513 4 12 4ZM12 12C15.536 12 18.4 13.432 18.4 15.2V16.8H5.59998V15.2C5.59998 13.432 8.46398 12 12 12Z" fill="white"/>
</svg>
