<svg width="23" height="24" viewBox="0 0 23 24" fill="none" xmlns="http://www.w3.org/2000/svg">
<path d="M10.4641 2.03627C10.8172 1.24822 11.936 1.24822 12.2892 2.03627L13.1436 3.94294C13.3852 4.482 14.0389 4.69529 14.5519 4.40243L16.4187 3.3368C17.1766 2.90413 18.0863 3.58201 17.8884 4.43201L17.4437 6.342C17.306 6.93343 17.7229 7.51007 18.3277 7.5647L20.3762 7.74975C21.2596 7.82955 21.6095 8.93457 20.933 9.50831L19.453 10.7637C18.9821 11.1631 18.9821 11.8895 19.453 12.2889L20.933 13.5443C21.6095 14.118 21.2596 15.223 20.3762 15.3028L18.3277 15.4879C17.7229 15.5425 17.306 16.1192 17.4437 16.7106L17.8884 18.6206C18.0863 19.4706 17.1766 20.1485 16.4187 19.7158L14.5519 18.6502C14.0389 18.3573 13.3852 18.5706 13.1436 19.1097L12.2892 21.0163C11.936 21.8044 10.8172 21.8044 10.4641 21.0163L9.60958 19.1097C9.368 18.5706 8.71428 18.3573 8.20127 18.6502L6.33454 19.7158C5.57661 20.1485 4.66693 19.4706 4.86482 18.6206L5.3095 16.7106C5.44719 16.1192 5.0303 15.5425 4.42552 15.4879L2.37705 15.3028C1.49366 15.223 1.14374 14.118 1.82017 13.5443L3.30024 12.2889C3.77111 11.8895 3.77111 11.1631 3.30024 10.7637L1.82017 9.50831C1.14374 8.93457 1.49366 7.82955 2.37705 7.74975L4.42552 7.5647C5.0303 7.51007 5.4472 6.93343 5.3095 6.342L4.86482 4.43201C4.66693 3.58201 5.57661 2.90413 6.33454 3.3368L8.20127 4.40243C8.71428 4.69529 9.368 4.482 9.60958 3.94294L10.4641 2.03627Z" fill="#FB2A6F"/>
<g clip-path="url(#clip0_19_244)">
<path d="M14.3072 8.02795L9.87441 12.2993L8.43675 10.914L7.02673 12.2726L8.46439 13.6579L9.88362 15.0254L11.2936 13.6668L15.7264 9.39549L14.3072 8.02795Z" fill="white"/>
</g>
<defs>
<clipPath id="clip0_19_244">
<rect width="8.69969" height="8.38276" fill="white" transform="translate(7.02673 7.33496)"/>
</clipPath>
</defs>
</svg>
