<svg width="40" height="40" viewBox="0 0 40 40" fill="none" xmlns="http://www.w3.org/2000/svg">
<path d="M17.5009 32.5004L17.4997 32.4992C17.2784 32.2787 17.1667 32.0127 17.1667 31.6667V21.6667V21.4941L17.0602 21.3582L7.39705 9.02934C7.23481 8.81183 7.15787 8.61185 7.13806 8.42615C7.11822 8.24012 7.15202 8.0342 7.26446 7.79905L7.26478 7.79838C7.37445 7.56816 7.5121 7.4192 7.66993 7.32402C7.82977 7.22762 8.04321 7.16669 8.33338 7.16669H31.6667C31.9569 7.16669 32.1706 7.22761 32.3308 7.32414C32.4889 7.41939 32.6269 7.56837 32.737 7.79838C32.849 8.03348 32.8825 8.23946 32.8625 8.42569C32.8425 8.61159 32.7654 8.81173 32.6031 9.02932L22.9399 21.3582L22.8334 21.4941V21.6667V31.6667C22.8334 32.0133 22.7218 32.2795 22.5015 32.4998C22.2797 32.7216 22.0128 32.8334 21.6667 32.8334H18.3334C17.9874 32.8334 17.7213 32.7216 17.5009 32.5004Z" stroke="white"/>
</svg>
